<mxfile host="Electron" modified="2023-11-29T20:40:14.615Z" agent="Mozilla/5.0 (X11; Linux x86_64) AppleWebKit/537.36 (KHTML, like Gecko) draw.io/22.1.2 Chrome/114.0.5735.289 Electron/25.9.4 Safari/537.36" etag="CNLfN_4RAj0jhkFTifMY" version="22.1.2" type="device" pages="2">
  <diagram name="PÃ¡gina-1" id="zwIt4ZT9LlGdYYxH_q5l">
    <mxGraphModel dx="1434" dy="839" grid="1" gridSize="10" guides="1" tooltips="1" connect="1" arrows="1" fold="1" page="1" pageScale="1" pageWidth="1169" pageHeight="827" math="0" shadow="0">
      <root>
        <mxCell id="0" />
        <mxCell id="1" parent="0" />
        <mxCell id="vZ2Ym8V51Z4fnAsbYTrX-24" value="" style="group" parent="1" vertex="1" connectable="0">
          <mxGeometry x="160" y="160" width="160" height="80" as="geometry" />
        </mxCell>
        <mxCell id="vZ2Ym8V51Z4fnAsbYTrX-25" value="" style="rounded=1;whiteSpace=wrap;html=1;fillColor=#BFBFBF;fontColor=#333333;strokeColor=#666666;container=0;" parent="vZ2Ym8V51Z4fnAsbYTrX-24" vertex="1">
          <mxGeometry width="160" height="80" as="geometry" />
        </mxCell>
        <mxCell id="vZ2Ym8V51Z4fnAsbYTrX-26" value="" style="endArrow=none;html=1;rounded=0;entryX=0.5;entryY=0;entryDx=0;entryDy=0;exitX=0.5;exitY=1;exitDx=0;exitDy=0;fillColor=#f5f5f5;strokeColor=#666666;" parent="vZ2Ym8V51Z4fnAsbYTrX-24" source="vZ2Ym8V51Z4fnAsbYTrX-25" target="vZ2Ym8V51Z4fnAsbYTrX-25" edge="1">
          <mxGeometry width="50" height="50" relative="1" as="geometry">
            <mxPoint x="10" y="440" as="sourcePoint" />
            <mxPoint x="60" y="390" as="targetPoint" />
          </mxGeometry>
        </mxCell>
        <mxCell id="vZ2Ym8V51Z4fnAsbYTrX-39" style="edgeStyle=orthogonalEdgeStyle;rounded=0;orthogonalLoop=1;jettySize=auto;html=1;" parent="vZ2Ym8V51Z4fnAsbYTrX-24" source="vZ2Ym8V51Z4fnAsbYTrX-27" edge="1">
          <mxGeometry relative="1" as="geometry">
            <mxPoint x="41" y="160" as="targetPoint" />
          </mxGeometry>
        </mxCell>
        <mxCell id="vZ2Ym8V51Z4fnAsbYTrX-27" value="" style="ellipse;whiteSpace=wrap;html=1;aspect=fixed;fillColor=#000000;container=0;" parent="vZ2Ym8V51Z4fnAsbYTrX-24" vertex="1">
          <mxGeometry x="36" y="35" width="10" height="10" as="geometry" />
        </mxCell>
        <mxCell id="vZ2Ym8V51Z4fnAsbYTrX-28" value="" style="ellipse;whiteSpace=wrap;html=1;aspect=fixed;fillColor=#000000;" parent="vZ2Ym8V51Z4fnAsbYTrX-24" vertex="1">
          <mxGeometry x="116" y="35" width="10" height="10" as="geometry" />
        </mxCell>
        <mxCell id="vZ2Ym8V51Z4fnAsbYTrX-29" value="" style="group" parent="1" vertex="1" connectable="0">
          <mxGeometry x="400" y="160" width="160" height="80" as="geometry" />
        </mxCell>
        <mxCell id="vZ2Ym8V51Z4fnAsbYTrX-30" value="" style="rounded=1;whiteSpace=wrap;html=1;fillColor=#BFBFBF;fontColor=#333333;strokeColor=#666666;container=0;" parent="vZ2Ym8V51Z4fnAsbYTrX-29" vertex="1">
          <mxGeometry width="160" height="80" as="geometry" />
        </mxCell>
        <mxCell id="vZ2Ym8V51Z4fnAsbYTrX-31" value="" style="endArrow=none;html=1;rounded=0;entryX=0.5;entryY=0;entryDx=0;entryDy=0;exitX=0.5;exitY=1;exitDx=0;exitDy=0;fillColor=#f5f5f5;strokeColor=#666666;" parent="vZ2Ym8V51Z4fnAsbYTrX-29" source="vZ2Ym8V51Z4fnAsbYTrX-30" target="vZ2Ym8V51Z4fnAsbYTrX-30" edge="1">
          <mxGeometry width="50" height="50" relative="1" as="geometry">
            <mxPoint x="10" y="440" as="sourcePoint" />
            <mxPoint x="60" y="390" as="targetPoint" />
          </mxGeometry>
        </mxCell>
        <mxCell id="vZ2Ym8V51Z4fnAsbYTrX-32" value="" style="ellipse;whiteSpace=wrap;html=1;aspect=fixed;fillColor=#000000;container=0;" parent="vZ2Ym8V51Z4fnAsbYTrX-29" vertex="1">
          <mxGeometry x="36" y="35" width="10" height="10" as="geometry" />
        </mxCell>
        <mxCell id="vZ2Ym8V51Z4fnAsbYTrX-56" value="" style="endArrow=none;html=1;rounded=0;exitX=0.5;exitY=1;exitDx=0;exitDy=0;entryX=0.972;entryY=0.063;entryDx=0;entryDy=0;entryPerimeter=0;strokeWidth=1;strokeColor=#7D7D7D;" parent="vZ2Ym8V51Z4fnAsbYTrX-29" source="vZ2Ym8V51Z4fnAsbYTrX-30" target="vZ2Ym8V51Z4fnAsbYTrX-30" edge="1">
          <mxGeometry width="50" height="50" relative="1" as="geometry">
            <mxPoint x="240" y="90" as="sourcePoint" />
            <mxPoint x="290" y="40" as="targetPoint" />
          </mxGeometry>
        </mxCell>
        <mxCell id="vZ2Ym8V51Z4fnAsbYTrX-38" value="" style="group" parent="1" vertex="1" connectable="0">
          <mxGeometry x="160" y="320" width="80" height="80" as="geometry" />
        </mxCell>
        <mxCell id="vZ2Ym8V51Z4fnAsbYTrX-36" value="" style="rounded=1;whiteSpace=wrap;html=1;" parent="vZ2Ym8V51Z4fnAsbYTrX-38" vertex="1">
          <mxGeometry width="80" height="80" as="geometry" />
        </mxCell>
        <mxCell id="vZ2Ym8V51Z4fnAsbYTrX-37" value="&lt;font style=&quot;font-size: 24px;&quot;&gt;a&lt;/font&gt;" style="text;html=1;strokeColor=none;fillColor=none;align=center;verticalAlign=middle;whiteSpace=wrap;rounded=0;" parent="vZ2Ym8V51Z4fnAsbYTrX-38" vertex="1">
          <mxGeometry x="10" y="25" width="60" height="30" as="geometry" />
        </mxCell>
        <mxCell id="vZ2Ym8V51Z4fnAsbYTrX-64" style="rounded=0;orthogonalLoop=1;jettySize=auto;html=1;entryX=0.25;entryY=0;entryDx=0;entryDy=0;" parent="1" source="vZ2Ym8V51Z4fnAsbYTrX-32" edge="1">
          <mxGeometry relative="1" as="geometry">
            <mxPoint x="440" y="320" as="targetPoint" />
          </mxGeometry>
        </mxCell>
        <mxCell id="hYa9ANRJxd4RdiM6IrgB-18" style="edgeStyle=orthogonalEdgeStyle;rounded=0;orthogonalLoop=1;jettySize=auto;html=1;entryX=0;entryY=0.5;entryDx=0;entryDy=0;" edge="1" parent="1" source="hYa9ANRJxd4RdiM6IrgB-1" target="vZ2Ym8V51Z4fnAsbYTrX-25">
          <mxGeometry relative="1" as="geometry" />
        </mxCell>
        <mxCell id="hYa9ANRJxd4RdiM6IrgB-1" value="x" style="text;html=1;strokeColor=none;fillColor=none;align=center;verticalAlign=middle;whiteSpace=wrap;rounded=0;fontSize=24;" vertex="1" parent="1">
          <mxGeometry x="20" y="185" width="60" height="30" as="geometry" />
        </mxCell>
        <mxCell id="hYa9ANRJxd4RdiM6IrgB-2" value="" style="group" vertex="1" connectable="0" parent="1">
          <mxGeometry x="160" y="480" width="160" height="80" as="geometry" />
        </mxCell>
        <mxCell id="hYa9ANRJxd4RdiM6IrgB-3" value="" style="rounded=1;whiteSpace=wrap;html=1;fillColor=#BFBFBF;fontColor=#333333;strokeColor=#666666;container=0;" vertex="1" parent="hYa9ANRJxd4RdiM6IrgB-2">
          <mxGeometry width="160" height="80" as="geometry" />
        </mxCell>
        <mxCell id="hYa9ANRJxd4RdiM6IrgB-4" value="" style="endArrow=none;html=1;rounded=0;entryX=0.5;entryY=0;entryDx=0;entryDy=0;exitX=0.5;exitY=1;exitDx=0;exitDy=0;fillColor=#f5f5f5;strokeColor=#666666;" edge="1" parent="hYa9ANRJxd4RdiM6IrgB-2" source="hYa9ANRJxd4RdiM6IrgB-3" target="hYa9ANRJxd4RdiM6IrgB-3">
          <mxGeometry width="50" height="50" relative="1" as="geometry">
            <mxPoint x="10" y="440" as="sourcePoint" />
            <mxPoint x="60" y="390" as="targetPoint" />
          </mxGeometry>
        </mxCell>
        <mxCell id="hYa9ANRJxd4RdiM6IrgB-6" value="" style="ellipse;whiteSpace=wrap;html=1;aspect=fixed;fillColor=#000000;container=0;" vertex="1" parent="hYa9ANRJxd4RdiM6IrgB-2">
          <mxGeometry x="35" y="35" width="10" height="10" as="geometry" />
        </mxCell>
        <mxCell id="hYa9ANRJxd4RdiM6IrgB-7" value="" style="ellipse;whiteSpace=wrap;html=1;aspect=fixed;fillColor=#000000;" vertex="1" parent="hYa9ANRJxd4RdiM6IrgB-2">
          <mxGeometry x="116" y="35" width="10" height="10" as="geometry" />
        </mxCell>
        <mxCell id="hYa9ANRJxd4RdiM6IrgB-8" value="" style="group" vertex="1" connectable="0" parent="1">
          <mxGeometry x="400" y="480" width="160" height="80" as="geometry" />
        </mxCell>
        <mxCell id="hYa9ANRJxd4RdiM6IrgB-9" value="" style="rounded=1;whiteSpace=wrap;html=1;fillColor=#BFBFBF;fontColor=#333333;strokeColor=#666666;container=0;" vertex="1" parent="hYa9ANRJxd4RdiM6IrgB-8">
          <mxGeometry width="160" height="80" as="geometry" />
        </mxCell>
        <mxCell id="hYa9ANRJxd4RdiM6IrgB-10" value="" style="endArrow=none;html=1;rounded=0;entryX=0.5;entryY=0;entryDx=0;entryDy=0;exitX=0.5;exitY=1;exitDx=0;exitDy=0;fillColor=#f5f5f5;strokeColor=#666666;" edge="1" parent="hYa9ANRJxd4RdiM6IrgB-8" source="hYa9ANRJxd4RdiM6IrgB-9" target="hYa9ANRJxd4RdiM6IrgB-9">
          <mxGeometry width="50" height="50" relative="1" as="geometry">
            <mxPoint x="10" y="440" as="sourcePoint" />
            <mxPoint x="60" y="390" as="targetPoint" />
          </mxGeometry>
        </mxCell>
        <mxCell id="hYa9ANRJxd4RdiM6IrgB-12" value="" style="ellipse;whiteSpace=wrap;html=1;aspect=fixed;fillColor=#000000;container=0;" vertex="1" parent="hYa9ANRJxd4RdiM6IrgB-8">
          <mxGeometry x="35" y="35" width="10" height="10" as="geometry" />
        </mxCell>
        <mxCell id="hYa9ANRJxd4RdiM6IrgB-13" value="" style="ellipse;whiteSpace=wrap;html=1;aspect=fixed;fillColor=#000000;" vertex="1" parent="hYa9ANRJxd4RdiM6IrgB-8">
          <mxGeometry x="116" y="35" width="10" height="10" as="geometry" />
        </mxCell>
        <mxCell id="hYa9ANRJxd4RdiM6IrgB-14" style="edgeStyle=orthogonalEdgeStyle;rounded=0;orthogonalLoop=1;jettySize=auto;html=1;exitX=0.5;exitY=0;exitDx=0;exitDy=0;entryX=0;entryY=0.5;entryDx=0;entryDy=0;" edge="1" parent="1" source="vZ2Ym8V51Z4fnAsbYTrX-28" target="vZ2Ym8V51Z4fnAsbYTrX-30">
          <mxGeometry relative="1" as="geometry">
            <Array as="points">
              <mxPoint x="281" y="200" />
            </Array>
          </mxGeometry>
        </mxCell>
        <mxCell id="hYa9ANRJxd4RdiM6IrgB-15" value="" style="group" vertex="1" connectable="0" parent="1">
          <mxGeometry x="400" y="320" width="80" height="80" as="geometry" />
        </mxCell>
        <mxCell id="hYa9ANRJxd4RdiM6IrgB-16" value="" style="rounded=1;whiteSpace=wrap;html=1;" vertex="1" parent="hYa9ANRJxd4RdiM6IrgB-15">
          <mxGeometry width="80" height="80" as="geometry" />
        </mxCell>
        <mxCell id="hYa9ANRJxd4RdiM6IrgB-17" value="&lt;font style=&quot;font-size: 24px;&quot;&gt;b&lt;/font&gt;" style="text;html=1;strokeColor=none;fillColor=none;align=center;verticalAlign=middle;whiteSpace=wrap;rounded=0;" vertex="1" parent="hYa9ANRJxd4RdiM6IrgB-15">
          <mxGeometry x="10" y="25" width="60" height="30" as="geometry" />
        </mxCell>
        <mxCell id="hYa9ANRJxd4RdiM6IrgB-39" value="" style="group" vertex="1" connectable="0" parent="1">
          <mxGeometry x="760" y="160" width="160" height="80" as="geometry" />
        </mxCell>
        <mxCell id="hYa9ANRJxd4RdiM6IrgB-40" value="" style="rounded=1;whiteSpace=wrap;html=1;fillColor=#BFBFBF;fontColor=#333333;strokeColor=#666666;container=0;" vertex="1" parent="hYa9ANRJxd4RdiM6IrgB-39">
          <mxGeometry width="160" height="80" as="geometry" />
        </mxCell>
        <mxCell id="hYa9ANRJxd4RdiM6IrgB-41" value="" style="endArrow=none;html=1;rounded=0;entryX=0.5;entryY=0;entryDx=0;entryDy=0;exitX=0.5;exitY=1;exitDx=0;exitDy=0;fillColor=#f5f5f5;strokeColor=#666666;" edge="1" parent="hYa9ANRJxd4RdiM6IrgB-39" source="hYa9ANRJxd4RdiM6IrgB-40" target="hYa9ANRJxd4RdiM6IrgB-40">
          <mxGeometry width="50" height="50" relative="1" as="geometry">
            <mxPoint x="10" y="440" as="sourcePoint" />
            <mxPoint x="60" y="390" as="targetPoint" />
          </mxGeometry>
        </mxCell>
        <mxCell id="hYa9ANRJxd4RdiM6IrgB-42" style="edgeStyle=orthogonalEdgeStyle;rounded=0;orthogonalLoop=1;jettySize=auto;html=1;" edge="1" parent="hYa9ANRJxd4RdiM6IrgB-39" source="hYa9ANRJxd4RdiM6IrgB-43">
          <mxGeometry relative="1" as="geometry">
            <mxPoint x="41" y="160" as="targetPoint" />
          </mxGeometry>
        </mxCell>
        <mxCell id="hYa9ANRJxd4RdiM6IrgB-43" value="" style="ellipse;whiteSpace=wrap;html=1;aspect=fixed;fillColor=#000000;container=0;" vertex="1" parent="hYa9ANRJxd4RdiM6IrgB-39">
          <mxGeometry x="36" y="35" width="10" height="10" as="geometry" />
        </mxCell>
        <mxCell id="hYa9ANRJxd4RdiM6IrgB-44" value="" style="ellipse;whiteSpace=wrap;html=1;aspect=fixed;fillColor=#000000;" vertex="1" parent="hYa9ANRJxd4RdiM6IrgB-39">
          <mxGeometry x="116" y="35" width="10" height="10" as="geometry" />
        </mxCell>
        <mxCell id="hYa9ANRJxd4RdiM6IrgB-45" value="" style="group" vertex="1" connectable="0" parent="1">
          <mxGeometry x="1000" y="160" width="160" height="80" as="geometry" />
        </mxCell>
        <mxCell id="hYa9ANRJxd4RdiM6IrgB-46" value="" style="rounded=1;whiteSpace=wrap;html=1;fillColor=#BFBFBF;fontColor=#333333;strokeColor=#666666;container=0;" vertex="1" parent="hYa9ANRJxd4RdiM6IrgB-45">
          <mxGeometry width="160" height="80" as="geometry" />
        </mxCell>
        <mxCell id="hYa9ANRJxd4RdiM6IrgB-47" value="" style="endArrow=none;html=1;rounded=0;entryX=0.5;entryY=0;entryDx=0;entryDy=0;exitX=0.5;exitY=1;exitDx=0;exitDy=0;fillColor=#f5f5f5;strokeColor=#666666;" edge="1" parent="hYa9ANRJxd4RdiM6IrgB-45" source="hYa9ANRJxd4RdiM6IrgB-46" target="hYa9ANRJxd4RdiM6IrgB-46">
          <mxGeometry width="50" height="50" relative="1" as="geometry">
            <mxPoint x="10" y="440" as="sourcePoint" />
            <mxPoint x="60" y="390" as="targetPoint" />
          </mxGeometry>
        </mxCell>
        <mxCell id="hYa9ANRJxd4RdiM6IrgB-48" value="" style="ellipse;whiteSpace=wrap;html=1;aspect=fixed;fillColor=#000000;container=0;" vertex="1" parent="hYa9ANRJxd4RdiM6IrgB-45">
          <mxGeometry x="36" y="35" width="10" height="10" as="geometry" />
        </mxCell>
        <mxCell id="hYa9ANRJxd4RdiM6IrgB-49" value="" style="endArrow=none;html=1;rounded=0;exitX=0.5;exitY=1;exitDx=0;exitDy=0;entryX=0.972;entryY=0.063;entryDx=0;entryDy=0;entryPerimeter=0;strokeWidth=1;strokeColor=#7D7D7D;" edge="1" parent="hYa9ANRJxd4RdiM6IrgB-45" source="hYa9ANRJxd4RdiM6IrgB-46" target="hYa9ANRJxd4RdiM6IrgB-46">
          <mxGeometry width="50" height="50" relative="1" as="geometry">
            <mxPoint x="240" y="90" as="sourcePoint" />
            <mxPoint x="290" y="40" as="targetPoint" />
          </mxGeometry>
        </mxCell>
        <mxCell id="hYa9ANRJxd4RdiM6IrgB-50" value="" style="group" vertex="1" connectable="0" parent="1">
          <mxGeometry x="760" y="320" width="80" height="80" as="geometry" />
        </mxCell>
        <mxCell id="hYa9ANRJxd4RdiM6IrgB-51" value="" style="rounded=1;whiteSpace=wrap;html=1;" vertex="1" parent="hYa9ANRJxd4RdiM6IrgB-50">
          <mxGeometry width="80" height="80" as="geometry" />
        </mxCell>
        <mxCell id="hYa9ANRJxd4RdiM6IrgB-52" value="&lt;font style=&quot;font-size: 24px;&quot;&gt;c&lt;/font&gt;" style="text;html=1;strokeColor=none;fillColor=none;align=center;verticalAlign=middle;whiteSpace=wrap;rounded=0;" vertex="1" parent="hYa9ANRJxd4RdiM6IrgB-50">
          <mxGeometry x="10" y="25" width="60" height="30" as="geometry" />
        </mxCell>
        <mxCell id="hYa9ANRJxd4RdiM6IrgB-53" style="rounded=0;orthogonalLoop=1;jettySize=auto;html=1;entryX=0.25;entryY=0;entryDx=0;entryDy=0;" edge="1" source="hYa9ANRJxd4RdiM6IrgB-48" parent="1">
          <mxGeometry relative="1" as="geometry">
            <mxPoint x="1040" y="320" as="targetPoint" />
          </mxGeometry>
        </mxCell>
        <mxCell id="hYa9ANRJxd4RdiM6IrgB-54" style="edgeStyle=orthogonalEdgeStyle;rounded=0;orthogonalLoop=1;jettySize=auto;html=1;entryX=0;entryY=0.5;entryDx=0;entryDy=0;" edge="1" source="hYa9ANRJxd4RdiM6IrgB-55" target="hYa9ANRJxd4RdiM6IrgB-40" parent="1">
          <mxGeometry relative="1" as="geometry" />
        </mxCell>
        <mxCell id="hYa9ANRJxd4RdiM6IrgB-55" value="y" style="text;html=1;strokeColor=none;fillColor=none;align=center;verticalAlign=middle;whiteSpace=wrap;rounded=0;fontSize=24;" vertex="1" parent="1">
          <mxGeometry x="620" y="185" width="60" height="30" as="geometry" />
        </mxCell>
        <mxCell id="hYa9ANRJxd4RdiM6IrgB-56" style="edgeStyle=orthogonalEdgeStyle;rounded=0;orthogonalLoop=1;jettySize=auto;html=1;exitX=0.5;exitY=0;exitDx=0;exitDy=0;entryX=0;entryY=0.5;entryDx=0;entryDy=0;" edge="1" source="hYa9ANRJxd4RdiM6IrgB-44" target="hYa9ANRJxd4RdiM6IrgB-46" parent="1">
          <mxGeometry relative="1" as="geometry">
            <Array as="points">
              <mxPoint x="881" y="200" />
            </Array>
          </mxGeometry>
        </mxCell>
        <mxCell id="hYa9ANRJxd4RdiM6IrgB-57" value="" style="group" vertex="1" connectable="0" parent="1">
          <mxGeometry x="1000" y="320" width="80" height="80" as="geometry" />
        </mxCell>
        <mxCell id="hYa9ANRJxd4RdiM6IrgB-58" value="" style="rounded=1;whiteSpace=wrap;html=1;" vertex="1" parent="hYa9ANRJxd4RdiM6IrgB-57">
          <mxGeometry width="80" height="80" as="geometry" />
        </mxCell>
        <mxCell id="hYa9ANRJxd4RdiM6IrgB-59" value="&lt;font style=&quot;font-size: 24px;&quot;&gt;d&lt;/font&gt;" style="text;html=1;strokeColor=none;fillColor=none;align=center;verticalAlign=middle;whiteSpace=wrap;rounded=0;" vertex="1" parent="hYa9ANRJxd4RdiM6IrgB-57">
          <mxGeometry x="10" y="25" width="60" height="30" as="geometry" />
        </mxCell>
        <mxCell id="hYa9ANRJxd4RdiM6IrgB-70" style="edgeStyle=orthogonalEdgeStyle;rounded=0;orthogonalLoop=1;jettySize=auto;html=1;entryX=0;entryY=0.5;entryDx=0;entryDy=0;" edge="1" parent="1" source="hYa9ANRJxd4RdiM6IrgB-7" target="hYa9ANRJxd4RdiM6IrgB-9">
          <mxGeometry relative="1" as="geometry" />
        </mxCell>
        <mxCell id="hYa9ANRJxd4RdiM6IrgB-71" value="" style="group" vertex="1" connectable="0" parent="1">
          <mxGeometry x="760" y="480" width="160" height="80" as="geometry" />
        </mxCell>
        <mxCell id="hYa9ANRJxd4RdiM6IrgB-72" value="" style="rounded=1;whiteSpace=wrap;html=1;fillColor=#BFBFBF;fontColor=#333333;strokeColor=#666666;container=0;" vertex="1" parent="hYa9ANRJxd4RdiM6IrgB-71">
          <mxGeometry width="160" height="80" as="geometry" />
        </mxCell>
        <mxCell id="hYa9ANRJxd4RdiM6IrgB-73" value="" style="endArrow=none;html=1;rounded=0;entryX=0.5;entryY=0;entryDx=0;entryDy=0;exitX=0.5;exitY=1;exitDx=0;exitDy=0;fillColor=#f5f5f5;strokeColor=#666666;" edge="1" parent="hYa9ANRJxd4RdiM6IrgB-71" source="hYa9ANRJxd4RdiM6IrgB-72" target="hYa9ANRJxd4RdiM6IrgB-72">
          <mxGeometry width="50" height="50" relative="1" as="geometry">
            <mxPoint x="10" y="440" as="sourcePoint" />
            <mxPoint x="60" y="390" as="targetPoint" />
          </mxGeometry>
        </mxCell>
        <mxCell id="hYa9ANRJxd4RdiM6IrgB-74" value="" style="ellipse;whiteSpace=wrap;html=1;aspect=fixed;fillColor=#000000;container=0;" vertex="1" parent="hYa9ANRJxd4RdiM6IrgB-71">
          <mxGeometry x="35" y="35" width="10" height="10" as="geometry" />
        </mxCell>
        <mxCell id="hYa9ANRJxd4RdiM6IrgB-75" value="" style="ellipse;whiteSpace=wrap;html=1;aspect=fixed;fillColor=#000000;" vertex="1" parent="hYa9ANRJxd4RdiM6IrgB-71">
          <mxGeometry x="116" y="35" width="10" height="10" as="geometry" />
        </mxCell>
        <mxCell id="hYa9ANRJxd4RdiM6IrgB-81" style="edgeStyle=orthogonalEdgeStyle;rounded=0;orthogonalLoop=1;jettySize=auto;html=1;entryX=0;entryY=0.5;entryDx=0;entryDy=0;" edge="1" source="hYa9ANRJxd4RdiM6IrgB-75" parent="1">
          <mxGeometry relative="1" as="geometry">
            <mxPoint x="1000" y="520" as="targetPoint" />
          </mxGeometry>
        </mxCell>
        <mxCell id="hYa9ANRJxd4RdiM6IrgB-82" style="edgeStyle=orthogonalEdgeStyle;rounded=0;orthogonalLoop=1;jettySize=auto;html=1;entryX=0;entryY=0.5;entryDx=0;entryDy=0;" edge="1" parent="1" source="hYa9ANRJxd4RdiM6IrgB-13" target="hYa9ANRJxd4RdiM6IrgB-72">
          <mxGeometry relative="1" as="geometry" />
        </mxCell>
        <mxCell id="hYa9ANRJxd4RdiM6IrgB-86" value="" style="group" vertex="1" connectable="0" parent="1">
          <mxGeometry x="1000" y="480" width="160" height="80" as="geometry" />
        </mxCell>
        <mxCell id="hYa9ANRJxd4RdiM6IrgB-87" value="" style="rounded=1;whiteSpace=wrap;html=1;fillColor=#BFBFBF;fontColor=#333333;strokeColor=#666666;container=0;" vertex="1" parent="hYa9ANRJxd4RdiM6IrgB-86">
          <mxGeometry width="160" height="80" as="geometry" />
        </mxCell>
        <mxCell id="hYa9ANRJxd4RdiM6IrgB-88" value="" style="endArrow=none;html=1;rounded=0;entryX=0.5;entryY=0;entryDx=0;entryDy=0;exitX=0.5;exitY=1;exitDx=0;exitDy=0;fillColor=#f5f5f5;strokeColor=#666666;" edge="1" parent="hYa9ANRJxd4RdiM6IrgB-86" source="hYa9ANRJxd4RdiM6IrgB-87" target="hYa9ANRJxd4RdiM6IrgB-87">
          <mxGeometry width="50" height="50" relative="1" as="geometry">
            <mxPoint x="10" y="440" as="sourcePoint" />
            <mxPoint x="60" y="390" as="targetPoint" />
          </mxGeometry>
        </mxCell>
        <mxCell id="hYa9ANRJxd4RdiM6IrgB-89" value="" style="ellipse;whiteSpace=wrap;html=1;aspect=fixed;fillColor=#000000;container=0;" vertex="1" parent="hYa9ANRJxd4RdiM6IrgB-86">
          <mxGeometry x="35" y="35" width="10" height="10" as="geometry" />
        </mxCell>
        <mxCell id="hYa9ANRJxd4RdiM6IrgB-90" value="" style="endArrow=none;html=1;rounded=0;exitX=0.5;exitY=1;exitDx=0;exitDy=0;entryX=0.972;entryY=0.063;entryDx=0;entryDy=0;entryPerimeter=0;strokeWidth=1;strokeColor=#7D7D7D;" edge="1" parent="hYa9ANRJxd4RdiM6IrgB-86" source="hYa9ANRJxd4RdiM6IrgB-87" target="hYa9ANRJxd4RdiM6IrgB-87">
          <mxGeometry width="50" height="50" relative="1" as="geometry">
            <mxPoint x="240" y="90" as="sourcePoint" />
            <mxPoint x="290" y="40" as="targetPoint" />
          </mxGeometry>
        </mxCell>
        <mxCell id="hYa9ANRJxd4RdiM6IrgB-91" style="edgeStyle=orthogonalEdgeStyle;rounded=0;orthogonalLoop=1;jettySize=auto;html=1;entryX=0.5;entryY=1;entryDx=0;entryDy=0;" edge="1" parent="1" source="hYa9ANRJxd4RdiM6IrgB-89" target="hYa9ANRJxd4RdiM6IrgB-58">
          <mxGeometry relative="1" as="geometry" />
        </mxCell>
        <mxCell id="hYa9ANRJxd4RdiM6IrgB-93" style="edgeStyle=orthogonalEdgeStyle;rounded=0;orthogonalLoop=1;jettySize=auto;html=1;entryX=0.5;entryY=1;entryDx=0;entryDy=0;" edge="1" parent="1" source="hYa9ANRJxd4RdiM6IrgB-74" target="hYa9ANRJxd4RdiM6IrgB-51">
          <mxGeometry relative="1" as="geometry" />
        </mxCell>
        <mxCell id="hYa9ANRJxd4RdiM6IrgB-94" style="edgeStyle=orthogonalEdgeStyle;rounded=0;orthogonalLoop=1;jettySize=auto;html=1;entryX=0.5;entryY=1;entryDx=0;entryDy=0;" edge="1" parent="1" source="hYa9ANRJxd4RdiM6IrgB-12" target="hYa9ANRJxd4RdiM6IrgB-16">
          <mxGeometry relative="1" as="geometry" />
        </mxCell>
        <mxCell id="hYa9ANRJxd4RdiM6IrgB-95" style="edgeStyle=orthogonalEdgeStyle;rounded=0;orthogonalLoop=1;jettySize=auto;html=1;entryX=0.5;entryY=1;entryDx=0;entryDy=0;" edge="1" parent="1" source="hYa9ANRJxd4RdiM6IrgB-6" target="vZ2Ym8V51Z4fnAsbYTrX-36">
          <mxGeometry relative="1" as="geometry" />
        </mxCell>
        <mxCell id="hYa9ANRJxd4RdiM6IrgB-97" style="edgeStyle=orthogonalEdgeStyle;rounded=0;orthogonalLoop=1;jettySize=auto;html=1;entryX=0;entryY=0.5;entryDx=0;entryDy=0;" edge="1" parent="1" source="hYa9ANRJxd4RdiM6IrgB-96" target="hYa9ANRJxd4RdiM6IrgB-3">
          <mxGeometry relative="1" as="geometry" />
        </mxCell>
        <mxCell id="hYa9ANRJxd4RdiM6IrgB-96" value="z" style="text;html=1;strokeColor=none;fillColor=none;align=center;verticalAlign=middle;whiteSpace=wrap;rounded=0;fontSize=24;" vertex="1" parent="1">
          <mxGeometry x="20" y="505" width="60" height="30" as="geometry" />
        </mxCell>
      </root>
    </mxGraphModel>
  </diagram>
  <diagram id="jtOfouXwNSlKOWTkV27J" name="PÃ¡gina-2">
    <mxGraphModel dx="1434" dy="839" grid="1" gridSize="10" guides="1" tooltips="1" connect="1" arrows="1" fold="1" page="1" pageScale="1" pageWidth="1169" pageHeight="827" math="0" shadow="0">
      <root>
        <mxCell id="0" />
        <mxCell id="1" parent="0" />
        <mxCell id="5GKoHtvy3nVdwT3IOYsL-72" value="" style="group" vertex="1" connectable="0" parent="1">
          <mxGeometry x="400" y="80" width="160" height="80" as="geometry" />
        </mxCell>
        <mxCell id="5GKoHtvy3nVdwT3IOYsL-73" value="" style="rounded=1;whiteSpace=wrap;html=1;fillColor=#BFBFBF;fontColor=#333333;strokeColor=#666666;container=0;" vertex="1" parent="5GKoHtvy3nVdwT3IOYsL-72">
          <mxGeometry width="160" height="80" as="geometry" />
        </mxCell>
        <mxCell id="5GKoHtvy3nVdwT3IOYsL-74" value="" style="endArrow=none;html=1;rounded=0;entryX=0.5;entryY=0;entryDx=0;entryDy=0;exitX=0.5;exitY=1;exitDx=0;exitDy=0;fillColor=#f5f5f5;strokeColor=#666666;" edge="1" parent="5GKoHtvy3nVdwT3IOYsL-72" source="5GKoHtvy3nVdwT3IOYsL-73" target="5GKoHtvy3nVdwT3IOYsL-73">
          <mxGeometry width="50" height="50" relative="1" as="geometry">
            <mxPoint x="10" y="440" as="sourcePoint" />
            <mxPoint x="60" y="390" as="targetPoint" />
          </mxGeometry>
        </mxCell>
        <mxCell id="5GKoHtvy3nVdwT3IOYsL-75" value="" style="ellipse;whiteSpace=wrap;html=1;aspect=fixed;fillColor=#000000;container=0;" vertex="1" parent="5GKoHtvy3nVdwT3IOYsL-72">
          <mxGeometry x="35" y="35" width="10" height="10" as="geometry" />
        </mxCell>
        <mxCell id="5GKoHtvy3nVdwT3IOYsL-76" value="" style="ellipse;whiteSpace=wrap;html=1;aspect=fixed;fillColor=#000000;" vertex="1" parent="5GKoHtvy3nVdwT3IOYsL-72">
          <mxGeometry x="116" y="35" width="10" height="10" as="geometry" />
        </mxCell>
        <mxCell id="5GKoHtvy3nVdwT3IOYsL-1" value="" style="group" vertex="1" connectable="0" parent="1">
          <mxGeometry x="160" y="80" width="160" height="80" as="geometry" />
        </mxCell>
        <mxCell id="5GKoHtvy3nVdwT3IOYsL-2" value="" style="rounded=1;whiteSpace=wrap;html=1;fillColor=#BFBFBF;fontColor=#333333;strokeColor=#666666;container=0;" vertex="1" parent="5GKoHtvy3nVdwT3IOYsL-1">
          <mxGeometry width="160" height="80" as="geometry" />
        </mxCell>
        <mxCell id="5GKoHtvy3nVdwT3IOYsL-3" value="" style="endArrow=none;html=1;rounded=0;entryX=0.5;entryY=0;entryDx=0;entryDy=0;exitX=0.5;exitY=1;exitDx=0;exitDy=0;fillColor=#f5f5f5;strokeColor=#666666;" edge="1" parent="5GKoHtvy3nVdwT3IOYsL-1" source="5GKoHtvy3nVdwT3IOYsL-2" target="5GKoHtvy3nVdwT3IOYsL-2">
          <mxGeometry width="50" height="50" relative="1" as="geometry">
            <mxPoint x="10" y="440" as="sourcePoint" />
            <mxPoint x="60" y="390" as="targetPoint" />
          </mxGeometry>
        </mxCell>
        <mxCell id="5GKoHtvy3nVdwT3IOYsL-4" style="edgeStyle=orthogonalEdgeStyle;rounded=0;orthogonalLoop=1;jettySize=auto;html=1;" edge="1" parent="5GKoHtvy3nVdwT3IOYsL-1" source="5GKoHtvy3nVdwT3IOYsL-5">
          <mxGeometry relative="1" as="geometry">
            <mxPoint x="41" y="160" as="targetPoint" />
          </mxGeometry>
        </mxCell>
        <mxCell id="5GKoHtvy3nVdwT3IOYsL-5" value="" style="ellipse;whiteSpace=wrap;html=1;aspect=fixed;fillColor=#000000;container=0;" vertex="1" parent="5GKoHtvy3nVdwT3IOYsL-1">
          <mxGeometry x="36" y="35" width="10" height="10" as="geometry" />
        </mxCell>
        <mxCell id="5GKoHtvy3nVdwT3IOYsL-6" value="" style="ellipse;whiteSpace=wrap;html=1;aspect=fixed;fillColor=#000000;" vertex="1" parent="5GKoHtvy3nVdwT3IOYsL-1">
          <mxGeometry x="116" y="35" width="10" height="10" as="geometry" />
        </mxCell>
        <mxCell id="5GKoHtvy3nVdwT3IOYsL-12" value="" style="group" vertex="1" connectable="0" parent="1">
          <mxGeometry x="160" y="240" width="80" height="80" as="geometry" />
        </mxCell>
        <mxCell id="5GKoHtvy3nVdwT3IOYsL-13" value="" style="rounded=1;whiteSpace=wrap;html=1;" vertex="1" parent="5GKoHtvy3nVdwT3IOYsL-12">
          <mxGeometry width="80" height="80" as="geometry" />
        </mxCell>
        <mxCell id="5GKoHtvy3nVdwT3IOYsL-14" value="&lt;font style=&quot;font-size: 24px;&quot;&gt;a&lt;/font&gt;" style="text;html=1;strokeColor=none;fillColor=none;align=center;verticalAlign=middle;whiteSpace=wrap;rounded=0;" vertex="1" parent="5GKoHtvy3nVdwT3IOYsL-12">
          <mxGeometry x="10" y="25" width="60" height="30" as="geometry" />
        </mxCell>
        <mxCell id="5GKoHtvy3nVdwT3IOYsL-16" style="edgeStyle=orthogonalEdgeStyle;rounded=0;orthogonalLoop=1;jettySize=auto;html=1;entryX=0;entryY=0.5;entryDx=0;entryDy=0;" edge="1" parent="1" source="5GKoHtvy3nVdwT3IOYsL-17" target="5GKoHtvy3nVdwT3IOYsL-2">
          <mxGeometry relative="1" as="geometry" />
        </mxCell>
        <mxCell id="5GKoHtvy3nVdwT3IOYsL-17" value="x" style="text;html=1;strokeColor=none;fillColor=none;align=center;verticalAlign=middle;whiteSpace=wrap;rounded=0;fontSize=24;" vertex="1" parent="1">
          <mxGeometry x="20" y="25" width="60" height="30" as="geometry" />
        </mxCell>
        <mxCell id="5GKoHtvy3nVdwT3IOYsL-18" value="" style="group" vertex="1" connectable="0" parent="1">
          <mxGeometry x="160" y="400" width="160" height="80" as="geometry" />
        </mxCell>
        <mxCell id="5GKoHtvy3nVdwT3IOYsL-19" value="" style="rounded=1;whiteSpace=wrap;html=1;fillColor=#BFBFBF;fontColor=#333333;strokeColor=#666666;container=0;" vertex="1" parent="5GKoHtvy3nVdwT3IOYsL-18">
          <mxGeometry width="160" height="80" as="geometry" />
        </mxCell>
        <mxCell id="5GKoHtvy3nVdwT3IOYsL-20" value="" style="endArrow=none;html=1;rounded=0;entryX=0.5;entryY=0;entryDx=0;entryDy=0;exitX=0.5;exitY=1;exitDx=0;exitDy=0;fillColor=#f5f5f5;strokeColor=#666666;" edge="1" parent="5GKoHtvy3nVdwT3IOYsL-18" source="5GKoHtvy3nVdwT3IOYsL-19" target="5GKoHtvy3nVdwT3IOYsL-19">
          <mxGeometry width="50" height="50" relative="1" as="geometry">
            <mxPoint x="10" y="440" as="sourcePoint" />
            <mxPoint x="60" y="390" as="targetPoint" />
          </mxGeometry>
        </mxCell>
        <mxCell id="5GKoHtvy3nVdwT3IOYsL-21" value="" style="ellipse;whiteSpace=wrap;html=1;aspect=fixed;fillColor=#000000;container=0;" vertex="1" parent="5GKoHtvy3nVdwT3IOYsL-18">
          <mxGeometry x="35" y="35" width="10" height="10" as="geometry" />
        </mxCell>
        <mxCell id="5GKoHtvy3nVdwT3IOYsL-22" value="" style="ellipse;whiteSpace=wrap;html=1;aspect=fixed;fillColor=#000000;" vertex="1" parent="5GKoHtvy3nVdwT3IOYsL-18">
          <mxGeometry x="116" y="35" width="10" height="10" as="geometry" />
        </mxCell>
        <mxCell id="5GKoHtvy3nVdwT3IOYsL-15" style="rounded=0;orthogonalLoop=1;jettySize=auto;html=1;entryX=0.25;entryY=0;entryDx=0;entryDy=0;" edge="1" parent="1">
          <mxGeometry relative="1" as="geometry">
            <mxPoint x="440" y="240" as="targetPoint" />
            <mxPoint x="440.9583347808507" y="124.99982629792066" as="sourcePoint" />
          </mxGeometry>
        </mxCell>
        <mxCell id="5GKoHtvy3nVdwT3IOYsL-23" value="" style="group" vertex="1" connectable="0" parent="1">
          <mxGeometry x="400" y="400" width="160" height="80" as="geometry" />
        </mxCell>
        <mxCell id="5GKoHtvy3nVdwT3IOYsL-24" value="" style="rounded=1;whiteSpace=wrap;html=1;fillColor=#BFBFBF;fontColor=#333333;strokeColor=#666666;container=0;" vertex="1" parent="5GKoHtvy3nVdwT3IOYsL-23">
          <mxGeometry width="160" height="80" as="geometry" />
        </mxCell>
        <mxCell id="5GKoHtvy3nVdwT3IOYsL-25" value="" style="endArrow=none;html=1;rounded=0;entryX=0.5;entryY=0;entryDx=0;entryDy=0;exitX=0.5;exitY=1;exitDx=0;exitDy=0;fillColor=#f5f5f5;strokeColor=#666666;" edge="1" parent="5GKoHtvy3nVdwT3IOYsL-23" source="5GKoHtvy3nVdwT3IOYsL-24" target="5GKoHtvy3nVdwT3IOYsL-24">
          <mxGeometry width="50" height="50" relative="1" as="geometry">
            <mxPoint x="10" y="440" as="sourcePoint" />
            <mxPoint x="60" y="390" as="targetPoint" />
          </mxGeometry>
        </mxCell>
        <mxCell id="5GKoHtvy3nVdwT3IOYsL-26" value="" style="ellipse;whiteSpace=wrap;html=1;aspect=fixed;fillColor=#000000;container=0;" vertex="1" parent="5GKoHtvy3nVdwT3IOYsL-23">
          <mxGeometry x="35" y="35" width="10" height="10" as="geometry" />
        </mxCell>
        <mxCell id="5GKoHtvy3nVdwT3IOYsL-27" value="" style="ellipse;whiteSpace=wrap;html=1;aspect=fixed;fillColor=#000000;" vertex="1" parent="5GKoHtvy3nVdwT3IOYsL-23">
          <mxGeometry x="116" y="35" width="10" height="10" as="geometry" />
        </mxCell>
        <mxCell id="5GKoHtvy3nVdwT3IOYsL-28" style="edgeStyle=orthogonalEdgeStyle;rounded=0;orthogonalLoop=1;jettySize=auto;html=1;exitX=0.5;exitY=0;exitDx=0;exitDy=0;entryX=0;entryY=0.5;entryDx=0;entryDy=0;" edge="1" parent="1" source="5GKoHtvy3nVdwT3IOYsL-6">
          <mxGeometry relative="1" as="geometry">
            <Array as="points">
              <mxPoint x="281" y="120" />
            </Array>
            <mxPoint x="400" y="120" as="targetPoint" />
          </mxGeometry>
        </mxCell>
        <mxCell id="5GKoHtvy3nVdwT3IOYsL-29" value="" style="group" vertex="1" connectable="0" parent="1">
          <mxGeometry x="400" y="240" width="80" height="80" as="geometry" />
        </mxCell>
        <mxCell id="5GKoHtvy3nVdwT3IOYsL-30" value="" style="rounded=1;whiteSpace=wrap;html=1;" vertex="1" parent="5GKoHtvy3nVdwT3IOYsL-29">
          <mxGeometry width="80" height="80" as="geometry" />
        </mxCell>
        <mxCell id="5GKoHtvy3nVdwT3IOYsL-31" value="&lt;font style=&quot;font-size: 24px;&quot;&gt;b&lt;/font&gt;" style="text;html=1;strokeColor=none;fillColor=none;align=center;verticalAlign=middle;whiteSpace=wrap;rounded=0;" vertex="1" parent="5GKoHtvy3nVdwT3IOYsL-29">
          <mxGeometry x="10" y="25" width="60" height="30" as="geometry" />
        </mxCell>
        <mxCell id="5GKoHtvy3nVdwT3IOYsL-32" value="" style="group" vertex="1" connectable="0" parent="1">
          <mxGeometry x="760" y="80" width="160" height="80" as="geometry" />
        </mxCell>
        <mxCell id="5GKoHtvy3nVdwT3IOYsL-33" value="" style="rounded=1;whiteSpace=wrap;html=1;fillColor=#BFBFBF;fontColor=#333333;strokeColor=#666666;container=0;" vertex="1" parent="5GKoHtvy3nVdwT3IOYsL-32">
          <mxGeometry width="160" height="80" as="geometry" />
        </mxCell>
        <mxCell id="5GKoHtvy3nVdwT3IOYsL-34" value="" style="endArrow=none;html=1;rounded=0;entryX=0.5;entryY=0;entryDx=0;entryDy=0;exitX=0.5;exitY=1;exitDx=0;exitDy=0;fillColor=#f5f5f5;strokeColor=#666666;" edge="1" parent="5GKoHtvy3nVdwT3IOYsL-32" source="5GKoHtvy3nVdwT3IOYsL-33" target="5GKoHtvy3nVdwT3IOYsL-33">
          <mxGeometry width="50" height="50" relative="1" as="geometry">
            <mxPoint x="10" y="440" as="sourcePoint" />
            <mxPoint x="60" y="390" as="targetPoint" />
          </mxGeometry>
        </mxCell>
        <mxCell id="5GKoHtvy3nVdwT3IOYsL-35" style="edgeStyle=orthogonalEdgeStyle;rounded=0;orthogonalLoop=1;jettySize=auto;html=1;" edge="1" parent="5GKoHtvy3nVdwT3IOYsL-32" source="5GKoHtvy3nVdwT3IOYsL-36">
          <mxGeometry relative="1" as="geometry">
            <mxPoint x="41" y="160" as="targetPoint" />
          </mxGeometry>
        </mxCell>
        <mxCell id="5GKoHtvy3nVdwT3IOYsL-36" value="" style="ellipse;whiteSpace=wrap;html=1;aspect=fixed;fillColor=#000000;container=0;" vertex="1" parent="5GKoHtvy3nVdwT3IOYsL-32">
          <mxGeometry x="36" y="35" width="10" height="10" as="geometry" />
        </mxCell>
        <mxCell id="5GKoHtvy3nVdwT3IOYsL-37" value="" style="ellipse;whiteSpace=wrap;html=1;aspect=fixed;fillColor=#000000;" vertex="1" parent="5GKoHtvy3nVdwT3IOYsL-32">
          <mxGeometry x="116" y="35" width="10" height="10" as="geometry" />
        </mxCell>
        <mxCell id="5GKoHtvy3nVdwT3IOYsL-38" value="" style="group" vertex="1" connectable="0" parent="1">
          <mxGeometry x="1000" y="80" width="160" height="80" as="geometry" />
        </mxCell>
        <mxCell id="5GKoHtvy3nVdwT3IOYsL-39" value="" style="rounded=1;whiteSpace=wrap;html=1;fillColor=#BFBFBF;fontColor=#333333;strokeColor=#666666;container=0;" vertex="1" parent="5GKoHtvy3nVdwT3IOYsL-38">
          <mxGeometry width="160" height="80" as="geometry" />
        </mxCell>
        <mxCell id="5GKoHtvy3nVdwT3IOYsL-40" value="" style="endArrow=none;html=1;rounded=0;entryX=0.5;entryY=0;entryDx=0;entryDy=0;exitX=0.5;exitY=1;exitDx=0;exitDy=0;fillColor=#f5f5f5;strokeColor=#666666;" edge="1" parent="5GKoHtvy3nVdwT3IOYsL-38" source="5GKoHtvy3nVdwT3IOYsL-39" target="5GKoHtvy3nVdwT3IOYsL-39">
          <mxGeometry width="50" height="50" relative="1" as="geometry">
            <mxPoint x="10" y="440" as="sourcePoint" />
            <mxPoint x="60" y="390" as="targetPoint" />
          </mxGeometry>
        </mxCell>
        <mxCell id="5GKoHtvy3nVdwT3IOYsL-41" value="" style="ellipse;whiteSpace=wrap;html=1;aspect=fixed;fillColor=#000000;container=0;" vertex="1" parent="5GKoHtvy3nVdwT3IOYsL-38">
          <mxGeometry x="36" y="35" width="10" height="10" as="geometry" />
        </mxCell>
        <mxCell id="5GKoHtvy3nVdwT3IOYsL-42" value="" style="endArrow=none;html=1;rounded=0;exitX=0.5;exitY=1;exitDx=0;exitDy=0;entryX=0.972;entryY=0.063;entryDx=0;entryDy=0;entryPerimeter=0;strokeWidth=1;strokeColor=#7D7D7D;" edge="1" parent="5GKoHtvy3nVdwT3IOYsL-38" source="5GKoHtvy3nVdwT3IOYsL-39" target="5GKoHtvy3nVdwT3IOYsL-39">
          <mxGeometry width="50" height="50" relative="1" as="geometry">
            <mxPoint x="240" y="90" as="sourcePoint" />
            <mxPoint x="290" y="40" as="targetPoint" />
          </mxGeometry>
        </mxCell>
        <mxCell id="5GKoHtvy3nVdwT3IOYsL-43" value="" style="group" vertex="1" connectable="0" parent="1">
          <mxGeometry x="760" y="240" width="80" height="80" as="geometry" />
        </mxCell>
        <mxCell id="5GKoHtvy3nVdwT3IOYsL-44" value="" style="rounded=1;whiteSpace=wrap;html=1;" vertex="1" parent="5GKoHtvy3nVdwT3IOYsL-43">
          <mxGeometry width="80" height="80" as="geometry" />
        </mxCell>
        <mxCell id="5GKoHtvy3nVdwT3IOYsL-45" value="&lt;font style=&quot;font-size: 24px;&quot;&gt;c&lt;/font&gt;" style="text;html=1;strokeColor=none;fillColor=none;align=center;verticalAlign=middle;whiteSpace=wrap;rounded=0;" vertex="1" parent="5GKoHtvy3nVdwT3IOYsL-43">
          <mxGeometry x="10" y="25" width="60" height="30" as="geometry" />
        </mxCell>
        <mxCell id="5GKoHtvy3nVdwT3IOYsL-46" style="rounded=0;orthogonalLoop=1;jettySize=auto;html=1;entryX=0.25;entryY=0;entryDx=0;entryDy=0;" edge="1" parent="1" source="5GKoHtvy3nVdwT3IOYsL-41">
          <mxGeometry relative="1" as="geometry">
            <mxPoint x="1040" y="240" as="targetPoint" />
          </mxGeometry>
        </mxCell>
        <mxCell id="5GKoHtvy3nVdwT3IOYsL-47" style="edgeStyle=orthogonalEdgeStyle;rounded=0;orthogonalLoop=1;jettySize=auto;html=1;entryX=0;entryY=0.5;entryDx=0;entryDy=0;" edge="1" parent="1" source="5GKoHtvy3nVdwT3IOYsL-48" target="5GKoHtvy3nVdwT3IOYsL-33">
          <mxGeometry relative="1" as="geometry" />
        </mxCell>
        <mxCell id="5GKoHtvy3nVdwT3IOYsL-48" value="y" style="text;html=1;strokeColor=none;fillColor=none;align=center;verticalAlign=middle;whiteSpace=wrap;rounded=0;fontSize=24;" vertex="1" parent="1">
          <mxGeometry x="620" y="25" width="60" height="30" as="geometry" />
        </mxCell>
        <mxCell id="5GKoHtvy3nVdwT3IOYsL-49" style="edgeStyle=orthogonalEdgeStyle;rounded=0;orthogonalLoop=1;jettySize=auto;html=1;exitX=0.5;exitY=0;exitDx=0;exitDy=0;entryX=0;entryY=0.5;entryDx=0;entryDy=0;" edge="1" parent="1" source="5GKoHtvy3nVdwT3IOYsL-37" target="5GKoHtvy3nVdwT3IOYsL-39">
          <mxGeometry relative="1" as="geometry">
            <Array as="points">
              <mxPoint x="881" y="120" />
            </Array>
          </mxGeometry>
        </mxCell>
        <mxCell id="5GKoHtvy3nVdwT3IOYsL-50" value="" style="group" vertex="1" connectable="0" parent="1">
          <mxGeometry x="1000" y="240" width="80" height="80" as="geometry" />
        </mxCell>
        <mxCell id="5GKoHtvy3nVdwT3IOYsL-51" value="" style="rounded=1;whiteSpace=wrap;html=1;" vertex="1" parent="5GKoHtvy3nVdwT3IOYsL-50">
          <mxGeometry width="80" height="80" as="geometry" />
        </mxCell>
        <mxCell id="5GKoHtvy3nVdwT3IOYsL-52" value="&lt;font style=&quot;font-size: 24px;&quot;&gt;d&lt;/font&gt;" style="text;html=1;strokeColor=none;fillColor=none;align=center;verticalAlign=middle;whiteSpace=wrap;rounded=0;" vertex="1" parent="5GKoHtvy3nVdwT3IOYsL-50">
          <mxGeometry x="10" y="25" width="60" height="30" as="geometry" />
        </mxCell>
        <mxCell id="5GKoHtvy3nVdwT3IOYsL-53" style="edgeStyle=orthogonalEdgeStyle;rounded=0;orthogonalLoop=1;jettySize=auto;html=1;entryX=0;entryY=0.5;entryDx=0;entryDy=0;" edge="1" parent="1" source="5GKoHtvy3nVdwT3IOYsL-22" target="5GKoHtvy3nVdwT3IOYsL-24">
          <mxGeometry relative="1" as="geometry" />
        </mxCell>
        <mxCell id="5GKoHtvy3nVdwT3IOYsL-54" value="" style="group" vertex="1" connectable="0" parent="1">
          <mxGeometry x="760" y="400" width="160" height="80" as="geometry" />
        </mxCell>
        <mxCell id="5GKoHtvy3nVdwT3IOYsL-55" value="" style="rounded=1;whiteSpace=wrap;html=1;fillColor=#BFBFBF;fontColor=#333333;strokeColor=#666666;container=0;" vertex="1" parent="5GKoHtvy3nVdwT3IOYsL-54">
          <mxGeometry width="160" height="80" as="geometry" />
        </mxCell>
        <mxCell id="5GKoHtvy3nVdwT3IOYsL-56" value="" style="endArrow=none;html=1;rounded=0;entryX=0.5;entryY=0;entryDx=0;entryDy=0;exitX=0.5;exitY=1;exitDx=0;exitDy=0;fillColor=#f5f5f5;strokeColor=#666666;" edge="1" parent="5GKoHtvy3nVdwT3IOYsL-54" source="5GKoHtvy3nVdwT3IOYsL-55" target="5GKoHtvy3nVdwT3IOYsL-55">
          <mxGeometry width="50" height="50" relative="1" as="geometry">
            <mxPoint x="10" y="440" as="sourcePoint" />
            <mxPoint x="60" y="390" as="targetPoint" />
          </mxGeometry>
        </mxCell>
        <mxCell id="5GKoHtvy3nVdwT3IOYsL-57" value="" style="ellipse;whiteSpace=wrap;html=1;aspect=fixed;fillColor=#000000;container=0;" vertex="1" parent="5GKoHtvy3nVdwT3IOYsL-54">
          <mxGeometry x="35" y="35" width="10" height="10" as="geometry" />
        </mxCell>
        <mxCell id="5GKoHtvy3nVdwT3IOYsL-58" value="" style="ellipse;whiteSpace=wrap;html=1;aspect=fixed;fillColor=#000000;" vertex="1" parent="5GKoHtvy3nVdwT3IOYsL-54">
          <mxGeometry x="116" y="35" width="10" height="10" as="geometry" />
        </mxCell>
        <mxCell id="5GKoHtvy3nVdwT3IOYsL-59" style="edgeStyle=orthogonalEdgeStyle;rounded=0;orthogonalLoop=1;jettySize=auto;html=1;entryX=0;entryY=0.5;entryDx=0;entryDy=0;" edge="1" parent="1" source="5GKoHtvy3nVdwT3IOYsL-58">
          <mxGeometry relative="1" as="geometry">
            <mxPoint x="1000" y="440" as="targetPoint" />
          </mxGeometry>
        </mxCell>
        <mxCell id="5GKoHtvy3nVdwT3IOYsL-60" style="edgeStyle=orthogonalEdgeStyle;rounded=0;orthogonalLoop=1;jettySize=auto;html=1;entryX=0;entryY=0.5;entryDx=0;entryDy=0;" edge="1" parent="1" source="5GKoHtvy3nVdwT3IOYsL-27" target="5GKoHtvy3nVdwT3IOYsL-55">
          <mxGeometry relative="1" as="geometry" />
        </mxCell>
        <mxCell id="5GKoHtvy3nVdwT3IOYsL-61" value="" style="group" vertex="1" connectable="0" parent="1">
          <mxGeometry x="1000" y="400" width="160" height="80" as="geometry" />
        </mxCell>
        <mxCell id="5GKoHtvy3nVdwT3IOYsL-62" value="" style="rounded=1;whiteSpace=wrap;html=1;fillColor=#BFBFBF;fontColor=#333333;strokeColor=#666666;container=0;" vertex="1" parent="5GKoHtvy3nVdwT3IOYsL-61">
          <mxGeometry width="160" height="80" as="geometry" />
        </mxCell>
        <mxCell id="5GKoHtvy3nVdwT3IOYsL-63" value="" style="endArrow=none;html=1;rounded=0;entryX=0.5;entryY=0;entryDx=0;entryDy=0;exitX=0.5;exitY=1;exitDx=0;exitDy=0;fillColor=#f5f5f5;strokeColor=#666666;" edge="1" parent="5GKoHtvy3nVdwT3IOYsL-61" source="5GKoHtvy3nVdwT3IOYsL-62" target="5GKoHtvy3nVdwT3IOYsL-62">
          <mxGeometry width="50" height="50" relative="1" as="geometry">
            <mxPoint x="10" y="440" as="sourcePoint" />
            <mxPoint x="60" y="390" as="targetPoint" />
          </mxGeometry>
        </mxCell>
        <mxCell id="5GKoHtvy3nVdwT3IOYsL-64" value="" style="ellipse;whiteSpace=wrap;html=1;aspect=fixed;fillColor=#000000;container=0;" vertex="1" parent="5GKoHtvy3nVdwT3IOYsL-61">
          <mxGeometry x="35" y="35" width="10" height="10" as="geometry" />
        </mxCell>
        <mxCell id="5GKoHtvy3nVdwT3IOYsL-65" value="" style="endArrow=none;html=1;rounded=0;exitX=0.5;exitY=1;exitDx=0;exitDy=0;entryX=0.972;entryY=0.063;entryDx=0;entryDy=0;entryPerimeter=0;strokeWidth=1;strokeColor=#7D7D7D;" edge="1" parent="5GKoHtvy3nVdwT3IOYsL-61" source="5GKoHtvy3nVdwT3IOYsL-62" target="5GKoHtvy3nVdwT3IOYsL-62">
          <mxGeometry width="50" height="50" relative="1" as="geometry">
            <mxPoint x="240" y="90" as="sourcePoint" />
            <mxPoint x="290" y="40" as="targetPoint" />
          </mxGeometry>
        </mxCell>
        <mxCell id="5GKoHtvy3nVdwT3IOYsL-66" style="edgeStyle=orthogonalEdgeStyle;rounded=0;orthogonalLoop=1;jettySize=auto;html=1;entryX=0.5;entryY=1;entryDx=0;entryDy=0;" edge="1" parent="1" source="5GKoHtvy3nVdwT3IOYsL-64" target="5GKoHtvy3nVdwT3IOYsL-51">
          <mxGeometry relative="1" as="geometry" />
        </mxCell>
        <mxCell id="5GKoHtvy3nVdwT3IOYsL-67" style="edgeStyle=orthogonalEdgeStyle;rounded=0;orthogonalLoop=1;jettySize=auto;html=1;entryX=0.5;entryY=1;entryDx=0;entryDy=0;" edge="1" parent="1" source="5GKoHtvy3nVdwT3IOYsL-57" target="5GKoHtvy3nVdwT3IOYsL-44">
          <mxGeometry relative="1" as="geometry" />
        </mxCell>
        <mxCell id="5GKoHtvy3nVdwT3IOYsL-68" style="edgeStyle=orthogonalEdgeStyle;rounded=0;orthogonalLoop=1;jettySize=auto;html=1;entryX=0.5;entryY=1;entryDx=0;entryDy=0;" edge="1" parent="1" source="5GKoHtvy3nVdwT3IOYsL-26" target="5GKoHtvy3nVdwT3IOYsL-30">
          <mxGeometry relative="1" as="geometry" />
        </mxCell>
        <mxCell id="5GKoHtvy3nVdwT3IOYsL-69" style="edgeStyle=orthogonalEdgeStyle;rounded=0;orthogonalLoop=1;jettySize=auto;html=1;entryX=0.5;entryY=1;entryDx=0;entryDy=0;" edge="1" parent="1" source="5GKoHtvy3nVdwT3IOYsL-21" target="5GKoHtvy3nVdwT3IOYsL-13">
          <mxGeometry relative="1" as="geometry" />
        </mxCell>
        <mxCell id="5GKoHtvy3nVdwT3IOYsL-70" style="edgeStyle=orthogonalEdgeStyle;rounded=0;orthogonalLoop=1;jettySize=auto;html=1;entryX=0;entryY=0.5;entryDx=0;entryDy=0;" edge="1" parent="1" source="5GKoHtvy3nVdwT3IOYsL-71" target="5GKoHtvy3nVdwT3IOYsL-19">
          <mxGeometry relative="1" as="geometry" />
        </mxCell>
        <mxCell id="5GKoHtvy3nVdwT3IOYsL-71" value="z" style="text;html=1;strokeColor=none;fillColor=none;align=center;verticalAlign=middle;whiteSpace=wrap;rounded=0;fontSize=24;" vertex="1" parent="1">
          <mxGeometry x="20" y="425" width="60" height="30" as="geometry" />
        </mxCell>
        <mxCell id="5GKoHtvy3nVdwT3IOYsL-77" style="edgeStyle=orthogonalEdgeStyle;rounded=0;orthogonalLoop=1;jettySize=auto;html=1;entryX=0;entryY=0.5;entryDx=0;entryDy=0;" edge="1" source="5GKoHtvy3nVdwT3IOYsL-76" parent="1">
          <mxGeometry relative="1" as="geometry">
            <mxPoint x="760" y="120" as="targetPoint" />
          </mxGeometry>
        </mxCell>
        <mxCell id="5GKoHtvy3nVdwT3IOYsL-79" style="edgeStyle=orthogonalEdgeStyle;rounded=0;orthogonalLoop=1;jettySize=auto;html=1;entryX=0;entryY=0.5;entryDx=0;entryDy=0;" edge="1" parent="1" source="5GKoHtvy3nVdwT3IOYsL-78" target="5GKoHtvy3nVdwT3IOYsL-2">
          <mxGeometry relative="1" as="geometry" />
        </mxCell>
        <mxCell id="5GKoHtvy3nVdwT3IOYsL-78" value="w" style="text;html=1;strokeColor=none;fillColor=none;align=center;verticalAlign=middle;whiteSpace=wrap;rounded=0;fontSize=24;" vertex="1" parent="1">
          <mxGeometry x="20" y="185" width="60" height="30" as="geometry" />
        </mxCell>
      </root>
    </mxGraphModel>
  </diagram>
</mxfile>
